<svg data-v-fde0c5aa="" xmlns="http://www.w3.org/2000/svg" viewBox="0 0 300 300" class="iconLeft"><!----><defs data-v-fde0c5aa=""><!----></defs><rect data-v-fde0c5aa="" fill="#EAE5FE" x="0" y="0" width="300px" height="300px" class="logo-background-square"></rect><defs data-v-fde0c5aa=""><!----></defs><g data-v-fde0c5aa="" id="4d14a32b-df6a-4ca6-80c5-658d3e41617c" fill="#150355" transform="matrix(1.1756587198925743,0,0,1.1756587198925743,73.70484154741405,138.7895833003546)"><path d="M4.17 10.88L1.41 3.58L0.14 4.18L3.33 12.74L4.68 11.79L4.59 11.44L7.12 3.88L6.54 3.56L4.17 10.88ZM9.52 6.43L9.52 6.43L9.52 6.43Q8.61 6.36 7.59 6.88L7.59 6.88L7.59 6.88Q6.58 7.40 6.70 8.65L6.70 8.65L8.26 7.95L8.26 7.95Q8.15 7.10 8.89 6.96L8.89 6.96L8.89 6.96Q9.64 6.82 10.06 7.21L10.06 7.21L10.06 7.21Q10.47 7.61 10.41 8.80L10.41 8.80L10.41 8.80Q9.95 8.50 9.33 8.42L9.33 8.42L9.33 8.42Q8.72 8.33 7.70 8.85L7.70 8.85L7.70 8.85Q6.69 9.37 6.44 10.38L6.44 10.38L6.44 10.38Q6.19 11.38 6.97 12.06L6.97 12.06L6.97 12.06Q7.75 12.73 8.47 12.70L8.47 12.70L8.47 12.70Q9.19 12.67 9.56 12.39L9.56 12.39L9.56 12.39Q9.92 12.10 10.43 11.57L10.43 11.57L10.43 11.57Q10.42 12.44 10.63 12.76L10.63 12.76L11.98 12.04L11.98 12.04Q11.64 11.63 11.71 11.02L11.71 11.02L11.71 8.16L11.71 8.16Q11.74 7.49 11.09 6.99L11.09 6.99L11.09 6.99Q10.44 6.50 9.52 6.43ZM10.46 9.32L10.45 9.68L10.45 11.18L10.45 11.18Q9.28 12.11 8.34 11.55L8.34 11.55L8.34 11.55Q7.39 10.99 7.26 10.16L7.26 10.16L7.26 10.16Q7.14 9.34 8.08 9.31L8.08 9.31L8.08 9.31Q9.03 9.28 9.83 10.00L9.83 10.00L10.46 9.32ZM14.06 6.38L12.75 6.89L12.75 12.73L14.12 12.15L14.12 8.05L14.12 8.05Q14.79 7.22 15.77 7.37L15.77 7.37L15.77 7.37Q16.75 7.53 16.72 8.48L16.72 8.48L16.71 12.77L18.05 12.18L18.05 8.25L18.05 8.25Q18.15 7.35 17.49 6.87L17.49 6.87L17.49 6.87Q16.83 6.40 15.86 6.56L15.86 6.56L15.86 6.56Q14.90 6.72 14.05 7.73L14.05 7.73L14.06 6.38ZM22.31 6.50L22.31 6.50L22.31 6.50Q20.97 6.27 20.04 7.11L20.04 7.11L20.04 7.11Q19.11 7.96 18.93 9.11L18.93 9.11L18.93 9.11Q18.74 10.27 19.15 11.14L19.15 11.14L19.15 11.14Q19.57 12.02 20.28 12.37L20.28 12.37L20.28 12.37Q20.98 12.73 21.69 12.74L21.69 12.74L21.69 12.74Q22.41 12.76 23.07 12.16L23.07 12.16L23.07 12.16Q23.73 11.57 24.18 10.54L24.18 10.54L24.08 10.47L24.08 10.47Q23.15 11.42 22.28 11.47L22.28 11.47L22.28 11.47Q21.41 11.52 20.86 11.17L20.86 11.17L20.86 11.17Q20.30 10.82 19.96 10.13L19.96 10.13L19.96 10.13Q19.61 9.44 19.82 8.56L19.82 8.56L19.82 8.56Q20.02 7.67 20.67 7.39L20.67 7.39L20.67 7.39Q21.32 7.12 21.93 7.45L21.93 7.45L21.93 7.45Q22.53 7.78 22.78 8.78L22.78 8.78L23.98 7.99L23.98 7.99Q23.66 6.73 22.31 6.50ZM28.03 6.48L28.03 6.48L28.03 6.48Q26.92 6.51 26.21 7.03L26.21 7.03L26.21 7.03Q25.50 7.55 25.18 8.19L25.18 8.19L25.18 8.19Q24.86 8.84 24.84 9.76L24.84 9.76L24.84 9.76Q24.81 10.68 25.50 11.62L25.50 11.62L25.50 11.62Q26.20 12.56 27.20 12.71L27.20 12.71L27.20 12.71Q28.21 12.85 29.07 12.33L29.07 12.33L29.07 12.33Q29.93 11.80 30.37 11.12L30.37 11.12L30.37 11.12Q30.80 10.45 30.82 9.35L30.82 9.35L30.82 9.35Q30.84 8.26 29.99 7.36L29.99 7.36L29.99 7.36Q29.15 6.46 28.03 6.48ZM27.74 7.44L27.74 7.44L27.74 7.44Q28.78 7.82 29.21 8.91L29.21 8.91L29.21 8.91Q29.63 9.99 29.58 10.67L29.58 10.67L29.58 10.67Q29.52 11.34 28.95 11.71L28.95 11.71L28.95 11.71Q28.38 12.08 27.44 11.56L27.44 11.56L27.44 11.56Q26.49 11.05 26.19 9.91L26.19 9.91L26.19 9.91Q25.88 8.77 26.29 7.92L26.29 7.92L26.29 7.92Q26.69 7.07 27.74 7.44ZM35.39 12.70L36.65 12.19L36.65 6.49L35.33 7.03L35.33 11.16L35.33 11.16Q34.82 11.79 33.96 11.74L33.96 11.74L33.96 11.74Q33.10 11.69 33.02 10.73L33.02 10.73L33.02 6.51L31.73 7.17L31.73 10.96L31.73 10.96Q31.73 11.91 32.39 12.35L32.39 12.35L32.39 12.35Q33.05 12.80 33.68 12.68L33.68 12.68L33.68 12.68Q34.30 12.56 35.39 11.48L35.39 11.48L35.39 12.70ZM40.39 11.03L38.30 6.44L37.17 7.03L39.60 12.74L40.80 11.98L40.69 11.65L42.63 6.64L42.16 6.47L40.39 11.03ZM46.21 6.51L46.21 6.51L46.21 6.51Q45.13 6.35 44.19 7.19L44.19 7.19L44.19 7.19Q43.25 8.03 42.99 9.15L42.99 9.15L42.99 9.15Q42.72 10.27 43.07 11.09L43.07 11.09L43.07 11.09Q43.42 11.91 44.00 12.28L44.00 12.28L44.00 12.28Q44.58 12.66 45.38 12.71L45.38 12.71L45.38 12.71Q46.17 12.76 46.94 12.08L46.94 12.08L46.94 12.08Q47.71 11.41 48.17 10.54L48.17 10.54L48.07 10.47L48.07 10.47Q47.02 11.57 45.94 11.52L45.94 11.52L45.94 11.52Q44.86 11.47 44.52 10.85L44.52 10.85L46.46 9.78L46.46 9.78Q47.91 8.81 47.61 7.75L47.61 7.75L47.61 7.75Q47.30 6.68 46.21 6.51ZM44.00 8.16L44.00 8.16L44.00 8.16Q44.24 7.66 44.85 7.40L44.85 7.40L44.85 7.40Q45.46 7.14 46.01 7.68L46.01 7.68L46.01 7.68Q46.55 8.21 46.39 8.90L46.39 8.90L46.39 8.90Q46.22 9.60 44.31 10.57L44.31 10.57L44.31 10.57Q44.00 10.04 43.88 9.35L43.88 9.35L43.88 9.35Q43.76 8.67 44.00 8.16ZM50.17 6.51L48.90 7.03L48.90 12.73L50.22 12.12L50.22 8.05L50.22 8.05Q50.87 7.22 51.45 7.37L51.45 7.37L51.45 7.37Q52.04 7.53 52.12 8.26L52.12 8.26L53.35 7.46L53.35 7.46Q53.21 6.62 52.20 6.50L52.20 6.50L52.20 6.50Q51.18 6.38 50.16 7.73L50.16 7.73L50.17 6.51ZM60.07 3.60L60.07 3.60L60.07 3.60Q59.45 3.74 58.93 4.17L58.93 4.17L58.93 4.17Q58.41 4.59 58.04 5.07L58.04 5.07L58.04 5.07Q57.68 5.54 57.66 6.29L57.66 6.29L57.66 6.29Q57.64 7.04 58.15 7.59L58.15 7.59L58.15 7.59Q58.65 8.14 60.09 8.56L60.09 8.56L60.09 8.56Q61.52 8.98 61.92 9.73L61.92 9.73L61.92 9.73Q62.32 10.49 61.85 11.05L61.85 11.05L61.85 11.05Q61.37 11.60 60.57 11.64L60.57 11.64L60.57 11.64Q59.76 11.68 59.08 11.15L59.08 11.15L59.08 11.15Q58.39 10.62 58.20 9.95L58.20 9.95L58.20 9.95Q58.01 9.27 58.03 8.95L58.03 8.95L56.97 9.98L56.97 9.98Q56.83 10.52 57.30 11.21L57.30 11.21L57.30 11.21Q57.76 11.91 58.59 12.37L58.59 12.37L58.59 12.37Q59.42 12.84 60.42 12.71L60.42 12.71L60.42 12.71Q61.41 12.59 62.30 11.34L62.30 11.34L62.30 11.34Q63.19 10.09 63.17 9.38L63.17 9.38L63.17 9.38Q63.16 8.66 62.63 8.12L62.63 8.12L62.63 8.12Q62.10 7.58 60.57 7.17L60.57 7.17L60.57 7.17Q59.03 6.76 58.88 5.92L58.88 5.92L58.88 5.92Q58.73 5.08 59.35 4.85L59.35 4.85L59.35 4.85Q59.96 4.61 60.76 4.96L60.76 4.96L60.76 4.96Q61.56 5.30 61.59 5.68L61.59 5.68L62.53 4.92L62.53 4.92Q62.36 4.22 61.52 3.84L61.52 3.84L61.52 3.84Q60.69 3.46 60.07 3.60ZM65.96 4.44L64.72 4.94L64.72 6.84L64.43 6.84L63.28 7.86L64.72 7.86L64.64 10.19L64.64 10.19Q64.65 11.87 65.53 12.42L65.53 12.42L65.53 12.42Q66.40 12.97 67.30 12.56L67.30 12.56L67.30 12.56Q68.19 12.15 68.51 11.09L68.51 11.09L68.41 10.93L68.41 10.93Q67.52 12.06 66.64 11.64L66.64 11.64L66.64 11.64Q65.77 11.22 65.92 9.78L65.92 9.78L65.97 7.85L66.81 7.85L68.88 6.79L65.95 6.79L65.96 4.44ZM72.18 6.43L72.18 6.43L72.18 6.43Q71.26 6.36 70.25 6.88L70.25 6.88L70.25 6.88Q69.23 7.40 69.36 8.65L69.36 8.65L70.92 7.95L70.92 7.95Q70.81 7.10 71.55 6.96L71.55 6.96L71.55 6.96Q72.30 6.82 72.71 7.21L72.71 7.21L72.71 7.21Q73.13 7.61 73.07 8.80L73.07 8.80L73.07 8.80Q72.61 8.50 71.99 8.42L71.99 8.42L71.99 8.42Q71.37 8.33 70.36 8.85L70.36 8.85L70.36 8.85Q69.35 9.37 69.10 10.38L69.10 10.38L69.10 10.38Q68.85 11.38 69.63 12.06L69.63 12.06L69.63 12.06Q70.40 12.73 71.13 12.70L71.13 12.70L71.13 12.70Q71.85 12.67 72.21 12.39L72.21 12.39L72.21 12.39Q72.58 12.10 73.09 11.57L73.09 11.57L73.09 11.57Q73.08 12.44 73.29 12.76L73.29 12.76L74.64 12.04L74.64 12.04Q74.30 11.63 74.37 11.02L74.37 11.02L74.37 8.16L74.37 8.16Q74.40 7.49 73.75 6.99L73.75 6.99L73.75 6.99Q73.10 6.50 72.18 6.43ZM73.12 9.32L73.10 9.68L73.10 11.18L73.10 11.18Q71.94 12.11 70.99 11.55L70.99 11.55L70.99 11.55Q70.05 10.99 69.92 10.16L69.92 10.16L69.92 10.16Q69.79 9.34 70.74 9.31L70.74 9.31L70.74 9.31Q71.69 9.28 72.49 10.00L72.49 10.00L73.12 9.32ZM76.68 6.51L75.41 7.03L75.41 12.73L76.73 12.12L76.73 8.05L76.73 8.05Q77.38 7.22 77.96 7.37L77.96 7.37L77.96 7.37Q78.55 7.53 78.63 8.26L78.63 8.26L79.86 7.46L79.86 7.46Q79.72 6.62 78.71 6.50L78.71 6.50L78.71 6.50Q77.69 6.38 76.67 7.73L76.67 7.73L76.68 6.51ZM83.92 3.59L83.92 3.59L83.92 3.59Q83.08 3.64 82.27 4.17L82.27 4.17L82.27 4.17Q81.47 4.70 80.91 5.38L80.91 5.38L80.91 5.38Q80.35 6.06 80.10 7.12L80.10 7.12L80.10 7.12Q79.85 8.18 80.11 9.45L80.11 9.45L80.11 9.45Q80.36 10.73 81.33 11.63L81.33 11.63L81.33 11.63Q82.29 12.53 83.51 12.67L83.51 12.67L83.51 12.67Q84.73 12.81 85.72 11.95L85.72 11.95L85.73 12.73L86.94 12.11L86.95 6.92L84.32 6.91L83.50 8.05L85.75 8.05L85.75 11.41L85.75 11.41Q84.29 11.97 82.98 11.08L82.98 11.08L82.98 11.08Q81.66 10.19 81.34 8.97L81.34 8.97L81.34 8.97Q81.03 7.75 81.28 6.59L81.28 6.59L81.28 6.59Q81.53 5.43 82.39 4.92L82.39 4.92L82.39 4.92Q83.24 4.40 84.41 4.75L84.41 4.75L84.41 4.75Q85.59 5.11 85.74 6.02L85.74 6.02L86.99 5.26L86.99 5.26Q86.95 4.46 86.31 4.07L86.31 4.07L86.31 4.07Q85.68 3.67 85.23 3.61L85.23 3.61L85.23 3.61Q84.77 3.54 83.92 3.59ZM90.71 6.43L90.71 6.43L90.71 6.43Q89.80 6.36 88.78 6.88L88.78 6.88L88.78 6.88Q87.77 7.40 87.89 8.65L87.89 8.65L89.46 7.95L89.46 7.95Q89.34 7.10 90.08 6.96L90.08 6.96L90.08 6.96Q90.83 6.82 91.25 7.21L91.25 7.21L91.25 7.21Q91.66 7.61 91.60 8.80L91.60 8.80L91.60 8.80Q91.14 8.50 90.52 8.42L90.52 8.42L90.52 8.42Q89.91 8.33 88.89 8.85L88.89 8.85L88.89 8.85Q87.88 9.37 87.63 10.38L87.63 10.38L87.63 10.38Q87.38 11.38 88.16 12.06L88.16 12.06L88.16 12.06Q88.94 12.73 89.66 12.70L89.66 12.70L89.66 12.70Q90.38 12.67 90.75 12.39L90.75 12.39L90.75 12.39Q91.11 12.10 91.62 11.57L91.62 11.57L91.62 11.57Q91.62 12.44 91.82 12.76L91.82 12.76L93.17 12.04L93.17 12.04Q92.83 11.63 92.90 11.02L92.90 11.02L92.90 8.16L92.90 8.16Q92.93 7.49 92.28 6.99L92.28 6.99L92.28 6.99Q91.63 6.50 90.71 6.43ZM91.65 9.32L91.64 9.68L91.64 11.18L91.64 11.18Q90.47 12.11 89.53 11.55L89.53 11.55L89.53 11.55Q88.58 10.99 88.45 10.16L88.45 10.16L88.45 10.16Q88.33 9.34 89.27 9.31L89.27 9.31L89.27 9.31Q90.22 9.28 91.02 10.00L91.02 10.00L91.65 9.32ZM95.12 6.56L94.01 7.81L97.28 7.81L93.57 12.68L98.22 12.67L99.05 11.46L95.06 11.46L98.72 6.56L95.12 6.56ZM102.84 6.51L102.84 6.51L102.84 6.51Q101.76 6.35 100.82 7.19L100.82 7.19L100.82 7.19Q99.88 8.03 99.62 9.15L99.62 9.15L99.62 9.15Q99.35 10.27 99.70 11.09L99.70 11.09L99.70 11.09Q100.05 11.91 100.63 12.28L100.63 12.28L100.63 12.28Q101.21 12.66 102.01 12.71L102.01 12.71L102.01 12.71Q102.80 12.76 103.57 12.08L103.57 12.08L103.57 12.08Q104.34 11.41 104.79 10.54L104.79 10.54L104.70 10.47L104.70 10.47Q103.65 11.57 102.57 11.52L102.57 11.52L102.57 11.52Q101.49 11.47 101.15 10.85L101.15 10.85L103.09 9.78L103.09 9.78Q104.54 8.81 104.23 7.75L104.23 7.75L104.23 7.75Q103.93 6.68 102.84 6.51ZM100.63 8.16L100.63 8.16L100.63 8.16Q100.86 7.66 101.48 7.40L101.48 7.40L101.48 7.40Q102.09 7.14 102.63 7.68L102.63 7.68L102.63 7.68Q103.18 8.21 103.01 8.90L103.01 8.90L103.01 8.90Q102.85 9.60 100.94 10.57L100.94 10.57L100.94 10.57Q100.63 10.04 100.51 9.35L100.51 9.35L100.51 9.35Q100.39 8.67 100.63 8.16ZM106.80 6.51L105.53 7.03L105.53 12.73L106.85 12.12L106.85 8.05L106.85 8.05Q107.50 7.22 108.08 7.37L108.08 7.37L108.08 7.37Q108.67 7.53 108.75 8.26L108.75 8.26L109.98 7.46L109.98 7.46Q109.84 6.62 108.82 6.50L108.82 6.50L108.82 6.50Q107.81 6.38 106.79 7.73L106.79 7.73L106.80 6.51ZM112.85 6.48L112.85 6.48L112.85 6.48Q112.15 6.57 111.78 6.79L111.78 6.79L111.78 6.79Q111.41 7.01 111.09 7.38L111.09 7.38L111.09 7.38Q110.77 7.76 110.76 8.38L110.76 8.38L110.76 8.38Q110.74 9.00 111.19 9.39L111.19 9.39L111.19 9.39Q111.64 9.77 112.92 10.21L112.92 10.21L112.92 10.21Q114.19 10.64 114.33 11.06L114.33 11.06L114.33 11.06Q114.46 11.48 114.14 11.76L114.14 11.76L114.14 11.76Q113.83 12.04 113.24 11.97L113.24 11.97L113.24 11.97Q112.66 11.90 112.23 11.61L112.23 11.61L112.23 11.61Q111.80 11.32 111.52 10.93L111.52 10.93L111.52 10.93Q111.25 10.55 111.18 10.27L111.18 10.27L110.12 11.06L110.12 11.06Q110.35 11.58 110.70 11.93L110.70 11.93L110.70 11.93Q111.05 12.28 111.58 12.50L111.58 12.50L111.58 12.50Q112.11 12.71 112.85 12.75L112.85 12.75L112.85 12.75Q113.60 12.78 114.18 12.37L114.18 12.37L114.18 12.37Q114.75 11.96 115.06 11.48L115.06 11.48L115.06 11.48Q115.37 11.01 115.35 10.52L115.35 10.52L115.35 10.52Q115.33 10.04 114.92 9.63L114.92 9.63L114.92 9.63Q114.50 9.21 113.14 8.75L113.14 8.75L113.14 8.75Q111.77 8.29 111.72 7.87L111.72 7.87L111.72 7.87Q111.66 7.44 112.20 7.29L112.20 7.29L112.20 7.29Q112.74 7.14 113.48 7.53L113.48 7.53L113.48 7.53Q114.21 7.93 114.17 8.16L114.17 8.16L115.03 7.25L115.03 7.25Q114.76 6.82 114.16 6.60L114.16 6.60L114.16 6.60Q113.55 6.39 112.85 6.48ZM122.42 3.60L122.42 3.60L122.42 3.60Q121.80 3.74 121.28 4.17L121.28 4.17L121.28 4.17Q120.76 4.59 120.39 5.07L120.39 5.07L120.39 5.07Q120.03 5.54 120.01 6.29L120.01 6.29L120.01 6.29Q119.99 7.04 120.50 7.59L120.50 7.59L120.50 7.59Q121.00 8.14 122.44 8.56L122.44 8.56L122.44 8.56Q123.87 8.98 124.27 9.73L124.27 9.73L124.27 9.73Q124.67 10.49 124.20 11.05L124.20 11.05L124.20 11.05Q123.72 11.60 122.92 11.64L122.92 11.64L122.92 11.64Q122.11 11.68 121.43 11.15L121.43 11.15L121.43 11.15Q120.74 10.62 120.55 9.95L120.55 9.95L120.55 9.95Q120.36 9.27 120.38 8.95L120.38 8.95L119.32 9.98L119.32 9.98Q119.18 10.52 119.65 11.21L119.65 11.21L119.65 11.21Q120.11 11.91 120.94 12.37L120.94 12.37L120.94 12.37Q121.77 12.84 122.77 12.71L122.77 12.71L122.77 12.71Q123.76 12.59 124.65 11.34L124.65 11.34L124.65 11.34Q125.54 10.09 125.52 9.38L125.52 9.38L125.52 9.38Q125.51 8.66 124.98 8.12L124.98 8.12L124.98 8.12Q124.46 7.58 122.92 7.17L122.92 7.17L122.92 7.17Q121.38 6.76 121.23 5.92L121.23 5.92L121.23 5.92Q121.08 5.08 121.70 4.85L121.70 4.85L121.70 4.85Q122.32 4.61 123.12 4.96L123.12 4.96L123.12 4.96Q123.92 5.30 123.94 5.68L123.94 5.68L124.88 4.92L124.88 4.92Q124.71 4.22 123.87 3.84L123.87 3.84L123.87 3.84Q123.04 3.46 122.42 3.60ZM129.23 6.48L129.23 6.48L129.23 6.48Q128.11 6.51 127.40 7.03L127.40 7.03L127.40 7.03Q126.70 7.55 126.38 8.19L126.38 8.19L126.38 8.19Q126.05 8.84 126.03 9.76L126.03 9.76L126.03 9.76Q126.01 10.68 126.70 11.62L126.70 11.62L126.70 11.62Q127.39 12.56 128.40 12.71L128.40 12.71L128.40 12.71Q129.40 12.85 130.26 12.33L130.26 12.33L130.26 12.33Q131.12 11.80 131.56 11.12L131.56 11.12L131.56 11.12Q132.00 10.45 132.01 9.35L132.01 9.35L132.01 9.35Q132.03 8.26 131.19 7.36L131.19 7.36L131.19 7.36Q130.34 6.46 129.23 6.48ZM128.93 7.44L128.93 7.44L128.93 7.44Q129.97 7.82 130.40 8.91L130.40 8.91L130.40 8.91Q130.83 9.99 130.77 10.67L130.77 10.67L130.77 10.67Q130.72 11.34 130.15 11.71L130.15 11.71L130.15 11.71Q129.58 12.08 128.63 11.56L128.63 11.56L128.63 11.56Q127.68 11.05 127.38 9.91L127.38 9.91L127.38 9.91Q127.07 8.77 127.48 7.92L127.48 7.92L127.48 7.92Q127.89 7.07 128.93 7.44ZM136.16 6.50L136.16 6.50L136.16 6.50Q134.81 6.27 133.89 7.11L133.89 7.11L133.89 7.11Q132.96 7.96 132.77 9.11L132.77 9.11L132.77 9.11Q132.58 10.27 133 11.14L133 11.14L133 11.14Q133.42 12.02 134.12 12.37L134.12 12.37L134.12 12.37Q134.83 12.73 135.54 12.74L135.54 12.74L135.54 12.74Q136.25 12.76 136.92 12.16L136.92 12.16L136.92 12.16Q137.58 11.57 138.02 10.54L138.02 10.54L137.93 10.47L137.93 10.47Q136.99 11.42 136.12 11.47L136.12 11.47L136.12 11.47Q135.26 11.52 134.70 11.17L134.70 11.17L134.70 11.17Q134.15 10.82 133.80 10.13L133.80 10.13L133.80 10.13Q133.46 9.44 133.66 8.56L133.66 8.56L133.66 8.56Q133.87 7.67 134.52 7.39L134.52 7.39L134.52 7.39Q135.17 7.12 135.77 7.45L135.77 7.45L135.77 7.45Q136.38 7.78 136.63 8.78L136.63 8.78L137.83 7.99L137.83 7.99Q137.50 6.73 136.16 6.50ZM140.48 3.55L139.21 4.14L139.21 5.58L140.48 5.06L140.48 3.55ZM140.49 6.54L139.17 7.02L139.17 12.67L140.49 12.21L140.49 6.54ZM145.00 6.51L145.00 6.51L145.00 6.51Q143.92 6.35 142.98 7.19L142.98 7.19L142.98 7.19Q142.04 8.03 141.77 9.15L141.77 9.15L141.77 9.15Q141.51 10.27 141.86 11.09L141.86 11.09L141.86 11.09Q142.21 11.91 142.79 12.28L142.79 12.28L142.79 12.28Q143.37 12.66 144.16 12.71L144.16 12.71L144.16 12.71Q144.96 12.76 145.73 12.08L145.73 12.08L145.73 12.08Q146.49 11.41 146.95 10.54L146.95 10.54L146.86 10.47L146.86 10.47Q145.80 11.57 144.73 11.52L144.73 11.52L144.73 11.52Q143.65 11.47 143.31 10.85L143.31 10.85L145.25 9.78L145.25 9.78Q146.70 8.81 146.39 7.75L146.39 7.75L146.39 7.75Q146.08 6.68 145.00 6.51ZM142.78 8.16L142.78 8.16L142.78 8.16Q143.02 7.66 143.63 7.40L143.63 7.40L143.63 7.40Q144.25 7.14 144.79 7.68L144.79 7.68L144.79 7.68Q145.34 8.21 145.17 8.90L145.17 8.90L145.17 8.90Q145.00 9.60 143.10 10.57L143.10 10.57L143.10 10.57Q142.79 10.04 142.67 9.35L142.67 9.35L142.67 9.35Q142.54 8.67 142.78 8.16ZM149.87 4.44L148.63 4.94L148.63 6.84L148.34 6.84L147.19 7.86L148.63 7.86L148.55 10.19L148.55 10.19Q148.56 11.87 149.44 12.42L149.44 12.42L149.44 12.42Q150.32 12.97 151.21 12.56L151.21 12.56L151.21 12.56Q152.10 12.15 152.42 11.09L152.42 11.09L152.33 10.93L152.33 10.93Q151.43 12.06 150.55 11.64L150.55 11.64L150.55 11.64Q149.68 11.22 149.83 9.78L149.83 9.78L149.88 7.85L150.72 7.85L152.79 6.79L149.86 6.79L149.87 4.44ZM158.46 12.19L158.46 12.19L158.46 6.49L157.14 7.03L157.14 11.16L157.14 11.16Q156.63 11.79 155.67 11.74L155.67 11.74L155.67 11.74Q154.70 11.69 154.62 10.73L154.62 10.73L154.63 6.51L153.33 7.17L153.33 10.96L153.33 10.96Q153.33 11.91 153.99 12.35L153.99 12.35L153.99 12.35Q154.66 12.80 155.38 12.68L155.38 12.68L155.38 12.68Q156.11 12.56 157.20 11.48L157.20 11.48L157.20 13.11L157.20 13.11Q157.24 14.06 156.90 14.39L156.90 14.39L156.90 14.39Q156.56 14.72 155.75 14.63L155.75 14.63L155.75 14.63Q154.94 14.53 154.11 13.36L154.11 13.36L153.25 14.57L153.25 14.57Q155.14 16.19 156.81 15.05L156.81 15.05L156.81 15.05Q158.48 13.90 158.46 12.19Z"></path></g><defs data-v-fde0c5aa=""><linearGradient data-v-fde0c5aa="" gradientTransform="rotate(25)" id="38053f16-d508-49dd-9064-72a5c3d12fab" x1="0%" y1="0%" x2="100%" y2="0%"><stop data-v-fde0c5aa="" offset="0%" stop-color="#410FF8" stop-opacity="1"></stop><stop data-v-fde0c5aa="" offset="100%" stop-color="#410FF8" stop-opacity="1"></stop></linearGradient></defs><g data-v-fde0c5aa="" id="7c1b01e0-4324-4842-88a8-0e17fa1cdceb" stroke="none" fill="url(#38053f16-d508-49dd-9064-72a5c3d12fab)" transform="matrix(0.23636254331196438,0,0,0.23636254331196438,39.18790093487187,138.43903501373467)"><path d="M84.554 4.255c-3.956 0-7.176 3.219-7.176 7.174 0 .387.039.765.099 1.135-4.092 2.764-9.443 7-15.568 12.325a31.995 31.995 0 0 0-13.796-3.113c-4.216 0-8.241.823-11.934 2.303-8.546-4.33-15.099-4.867-18.489-1.478-3.615 3.615-2.559 10.319 1.195 17.912a31.978 31.978 0 0 0-2.954 13.445c0 4.956 1.127 9.652 3.138 13.851C.588 89.162 3.108 91.712 4.198 92.802c.469.469 1.055.767 1.897.767 1.784 0 4.716-1.335 10.114-5.214 3.358-2.414 7.331-5.58 11.733-9.347 5.522 4.455 12.538 7.131 20.169 7.131a31.978 31.978 0 0 0 14.39-3.409c3.422 1.423 6.504 2.168 9.096 2.168 2.577 0 4.677-.725 6.17-2.218 3.033-3.033 2.954-8.486-.202-15.778a32 32 0 0 0 2.728-12.943c0-7.611-2.661-14.608-7.095-20.124 5.15-5.988 9.264-11.255 11.862-15.254 3.721-.262 6.67-3.365 6.67-7.15a7.184 7.184 0 0 0-7.176-7.176zM68.88 33.851c-5.615 6.406-12.317 13.548-19.557 20.787a523.53 523.53 0 0 1-3.659 3.618 8.591 8.591 0 0 0-10.053.112c-5.973-6.453-10.321-12.584-13.106-17.84 4.847-9.204 14.504-15.497 25.608-15.497 8.143-.001 15.504 3.386 20.767 8.82zM35.322 65.33a5.396 5.396 0 0 1 5.391-5.39 5.396 5.396 0 0 1 5.39 5.39 5.395 5.395 0 0 1-5.39 5.389 5.396 5.396 0 0 1-5.391-5.389zM19.991 24.902c1.997-1.996 6.534-1.603 12.413.984a32.427 32.427 0 0 0-11.606 11.085c-2.482-5.809-2.717-10.159-.807-12.069zm13.398 35.859a8.566 8.566 0 0 0-.016 9.111 367.435 367.435 0 0 1-5.405 4.817c-5.411-5.26-8.783-12.608-8.783-20.731 0-3.423.602-6.707 1.697-9.756 3.217 5.511 7.614 11.284 12.507 16.559zM6.826 90.183c.652-2.084 4.084-7.877 13.913-19.329a32.42 32.42 0 0 0 4.756 5.971C15.18 85.626 9.106 89.5 6.826 90.183zm41.286-7.298a28.777 28.777 0 0 1-17.665-6.044 350.026 350.026 0 0 0 5.129-4.575 8.596 8.596 0 0 0 5.136 1.707 8.592 8.592 0 0 0 5.076-1.663c4.52 3.62 8.853 6.503 12.835 8.59a28.776 28.776 0 0 1-10.511 1.985zm27.356-2.507c-1.517 1.516-4.78 1.675-9.296.201a32.417 32.417 0 0 0 9.397-9.857c1.572 4.553 1.559 7.997-.101 9.656zm1.57-26.42c0 10.755-5.903 20.15-14.637 25.135-4.148-1.89-9.028-4.896-14.386-9.16a8.59 8.59 0 0 0-.083-9.344 511.648 511.648 0 0 0 3.691-3.65c7.151-7.151 13.796-14.222 19.403-20.606a28.77 28.77 0 0 1 6.012 17.625zM64.959 26.553c5.377-4.637 10.091-8.369 13.792-10.919a7.221 7.221 0 0 0 2.82 2.314c-2.49 3.659-6.115 8.261-10.553 13.435a32.34 32.34 0 0 0-6.059-4.83zm19.595-11.201a3.927 3.927 0 0 1-3.922-3.922c0-2.162 1.76-3.92 3.922-3.92a3.926 3.926 0 0 1 3.923 3.92 3.927 3.927 0 0 1-3.923 3.922z"></path><circle cx="84.426" cy="36.093" r="2.88"></circle><circle cx="63.021" cy="64.038" r="5.941"></circle><circle cx="42.211" cy="77.572" r="1.249"></circle><circle cx="70.555" cy="46.986" r="1.248"></circle><circle cx="40.963" cy="32.373" r="1.861"></circle><circle cx="24.738" cy="62.178" r="1.861"></circle><circle cx="42.425" cy="46.986" r="3.323"></circle></g><!----></svg>